<?xml version="1.0" standalone="no"?>
<!DOCTYPE svg PUBLIC "-//W3C//DTD SVG 20010904//EN"
 "http://www.w3.org/TR/2001/REC-SVG-20010904/DTD/svg10.dtd">
<svg version="1.0" xmlns="http://www.w3.org/2000/svg"
 width="128.000000pt" height="128.000000pt" viewBox="0 0 128.000000 128.000000"
 preserveAspectRatio="xMidYMid meet">
<metadata>
Created by potrace 1.11, written by Peter Selinger 2001-2013
</metadata>
<g transform="translate(0.000000,128.000000) scale(0.100000,-0.100000)"
fill="#000000" stroke="none">
<path d="M649 1183 c-1 -2 -2 -13 -3 -25 -1 -18 6 -25 34 -33 l35 -11 0 -140
1 -140 -51 9 c-77 14 -203 3 -253 -22 -61 -31 -107 -82 -133 -148 -31 -79 -34
-279 -5 -362 26 -74 94 -142 161 -161 74 -21 181 -17 239 9 58 25 56 25 56 6
0 -22 265 -22 274 0 7 20 -20 45 -50 45 l-24 0 0 485 c0 455 -1 485 -17 486
-72 2 -263 4 -264 2z m46 -419 c19 -5 20 -13 20 -261 l-1 -257 -29 -12 c-42
-18 -116 -17 -143 2 -50 35 -79 142 -76 280 2 102 25 182 63 223 26 28 35 31
88 31 32 0 67 -3 78 -6z"/>
</g>
</svg>
